HIERARCHY
ROOT Hips
{
 OFFSET 0.000000 0.000000 0.000000
 CHANNELS 6 Xposition Yposition Zposition Yrotation Xrotation Zrotation
 JOINT Chest
 {
  OFFSET 0.000000 10.385163 0.011643
  CHANNELS 3 Yrotation Xrotation Zrotation
  JOINT Chest2
  {
   OFFSET 0.000000 11.579334 -0.021150
   CHANNELS 3 Yrotation Xrotation Zrotation
   JOINT Chest3
   {
    OFFSET 0.000000 10.463212 0.000000
    CHANNELS 3 Yrotation Xrotation Zrotation
    JOINT Chest4
    {
     OFFSET 0.000000 10.463212 0.000000
     CHANNELS 3 Yrotation Xrotation Zrotation
     JOINT Neck
     {
      OFFSET 0.000000 14.544862 0.000000
      CHANNELS 3 Yrotation Xrotation Zrotation
      JOINT Head
      {
       OFFSET 0.000000 9.730630 -0.050295
       CHANNELS 3 Yrotation Xrotation Zrotation
       End Site
       {
        OFFSET 0.000000 18.757589 -0.026270
       }
      }
     }
     JOINT RightCollar
     {
      OFFSET -2.985174 8.102313 0.000000
      CHANNELS 3 Yrotation Xrotation Zrotation
      JOINT RightShoulder
      {
       OFFSET -13.558590 0.000000 0.000000
       CHANNELS 3 Yrotation Xrotation Zrotation
       JOINT RightElbow
       {
        OFFSET -28.208579 0.000000 0.000000
        CHANNELS 3 Yrotation Xrotation Zrotation
        JOINT RightWrist
        {
         OFFSET -23.322907 0.000000 0.010349
         CHANNELS 3 Yrotation Xrotation Zrotation
         End Site
         {
          OFFSET -17.603338 0.000000 0.000000
         }
        }
       }
      }
     }
     JOINT LeftCollar
     {
      OFFSET 2.985174 8.102313 0.000000
      CHANNELS 3 Yrotation Xrotation Zrotation
      JOINT LeftShoulder
      {
       OFFSET 13.558590 0.000000 0.000000
       CHANNELS 3 Yrotation Xrotation Zrotation
       JOINT LeftElbow
       {
        OFFSET 28.208579 0.000000 0.000000
        CHANNELS 3 Yrotation Xrotation Zrotation
        JOINT LeftWrist
        {
         OFFSET 23.322907 0.000000 0.010349
         CHANNELS 3 Yrotation Xrotation Zrotation
         End Site
         {
          OFFSET 17.603338 0.000000 0.000000
         }
        }
       }
      }
     }
    }
   }
  }
 }
 JOINT RightHip
 {
  OFFSET -8.341224 -0.057053 -0.005822
  CHANNELS 3 Yrotation Xrotation Zrotation
  JOINT RightKnee
  {
   OFFSET 0.000000 -44.280013 0.005508
   CHANNELS 3 Yrotation Xrotation Zrotation
   JOINT RightAnkle
   {
    OFFSET 0.000000 -43.261728 0.009315
    CHANNELS 3 Yrotation Xrotation Zrotation
    JOINT RightToe
    {
     OFFSET 0.000000 -8.082955 18.257715
     CHANNELS 3 Yrotation Xrotation Zrotation
     End Site
     {
      OFFSET 0.000000 -1.634678 7.189621
     }
    }
   }
  }
 }
 JOINT LeftHip
 {
  OFFSET 8.341224 -0.057053 -0.005822
  CHANNELS 3 Yrotation Xrotation Zrotation
  JOINT LeftKnee
  {
   OFFSET 0.000000 -44.280013 0.005508
   CHANNELS 3 Yrotation Xrotation Zrotation
   JOINT LeftAnkle
   {
    OFFSET 0.000000 -43.261728 0.009315
    CHANNELS 3 Yrotation Xrotation Zrotation
    JOINT LeftToe
    {
     OFFSET 0.000000 -8.082955 18.257715
     CHANNELS 3 Yrotation Xrotation Zrotation
     End Site
     {
      OFFSET 0.000000 -1.634678 7.189621
     }
    }
   }
  }
 }
}
MOTION
Frames: 12
Frame Time: 0.016667
0.000000 95.489079 0.000000 0.000000 -5.826342 0.000000 0.000000 11.116423 0.000000 0.000000 -5.290081 0.000000 0.000000 0.000000 0.000000 0.000000 0.000000 0.000000 0.000000 12.665069 0.000000 0.000000 0.575450 0.000000 0.000000 0.000000 0.000000 0.000000 0.000000 0.000000 2.337306 0.000000 0.000000 -2.337306 0.000000 0.000000 0.000000 0.000000 0.000000 0.000000 0.000000 0.000000 -2.337306 0.000000 0.000000 2.337306 0.000000 0.000000 0.000000 8.578828 0.000000 0.000000 1.905768 0.000000 0.000000 -4.658254 0.000000 0.000000 0.000000 0.000000 0.000000 8.578828 0.000000 0.000000 1.905768 0.000000 0.000000 -4.658254 0.000000 0.000000 0.000000 0.000000
-128.960332 96.944947 -265.778828 -73.142109 -18.065569 0.401686 -0.646968 11.074306 2.274590 -0.340675 4.918727 1.021554 -0.340677 4.918732 1.021547 -0.263593 3.688497 0.768432 10.838068 15.395442 -2.994198 21.289260 -6.280027 -9.487367 0.207034 -4.276513 6.591287 -2.801243 -9.599945 74.126535 -0.972881 23.078794 -4.075907 2.864672 0.419129 1.843595 -0.814395 -10.995167 -14.291362 7.390252 -1.197044 -72.396960 -7.037657 24.444707 -2.544302 2.570292 0.752827 -4.436662 -10.634991 28.129913 -4.928616 -1.515617 -7.137887 -0.332110 -8.603441 -5.432619 7.201773 0.000000 0.000000 0.000000 0.352250 23.176845 4.049669 1.496231 -0.837558 0.499643 5.387861 -2.726942 -5.295740 0.000097 -0.961653 -0.011558
-128.884880 96.949615 -265.777220 -73.129979 -17.959869 0.357732 -0.655934 11.050344 2.259031 -0.344157 4.908061 1.014865 -0.344161 4.908070 1.014852 -0.266135 3.680501 0.763435 9.994038 15.259192 -2.849115 19.691096 -6.699233 -8.961272 0.212577 -4.281678 6.600412 -2.764229 -9.567081 74.122379 -0.959318 23.033385 -4.063076 2.860011 0.418820 1.835846 -0.786253 -10.984769 -14.303144 7.395499 -1.194082 -72.395592 -6.946253 24.387733 -2.459751 2.580518 0.752273 -4.429129 -10.640191 27.992590 -4.911427 -1.504360 -7.118702 -0.302507 -8.599094 -5.402538 7.211917 0.000000 0.000000 0.000000 0.351817 23.064479 4.077693 1.510467 -0.848392 0.506940 5.377802 -2.732106 -5.291448 0.000074 -0.940026 -0.008997
-128.807210 96.954427 -265.775507 -73.117759 -17.851963 0.312722 -0.665202 11.026305 2.243036 -0.347763 4.897360 1.007992 -0.347768 4.897372 1.007975 -0.268767 3.672477 0.758302 9.127275 15.122410 -2.696672 18.044042 -7.114501 -8.405007 0.218615 -4.287490 6.609955 -2.726293 -9.533180 74.118028 -0.946842 22.986753 -4.050845 2.855151 0.418638 1.828030 -0.756741 -10.975005 -14.315390 7.400464 -1.190886 -72.393973 -6.851831 24.328712 -2.372276 2.591367 0.752000 -4.421812 -10.646694 27.852145 -4.894556 -1.491626 -7.098829 -0.272284 -8.594763 -5.371894 7.222447 0.000000 -0.000000 0.000000 0.351744 22.950048 4.106719 1.524417 -0.859712 0.514107 5.367778 -2.737380 -5.286907 0.000051 -0.917995 -0.006354
-128.728156 96.959329 -265.773729 -73.105522 -17.742674 0.267072 -0.674672 11.002218 2.226776 -0.351453 4.886636 1.001006 -0.351459 4.886650 1.000986 -0.271462 3.664436 0.753087 8.246496 14.986756 -2.538335 16.364308 -7.519948 -7.823720 0.224963 -4.293708 6.619756 -2.687765 -9.498650 74.113547 -0.935062 22.939357 -4.038969 2.850166 0.418531 1.820172 -0.726374 -10.965652 -14.327939 7.405257 -1.187546 -72.392199 -6.755637 24.268277 -2.283069 2.602601 0.751892 -4.414622 -10.654074 27.709755 -4.877880 -1.477969 -7.078529 -0.241672 -8.590442 -5.340899 7.233217 0.000000 0.000000 -0.000000 0.351856 22.834327 4.136359 1.538185 -0.871336 0.521192 5.357776 -2.742720 -5.282213 0.000029 -0.895712 -0.003662
-128.648547 96.964266 -265.771925 -73.093340 -17.632828 0.221198 -0.684249 10.978117 2.210417 -0.355190 4.875905 0.993980 -0.355197 4.875921 0.993959 -0.274191 3.656387 0.747844 7.360396 14.853764 -2.375706 14.668332 -7.910296 -7.223235 0.231434 -4.300092 6.629659 -2.648976 -9.463895 74.108999 -0.923589 22.891658 -4.027209 2.845133 0.418449 1.812298 -0.695662 -10.956488 -14.340625 7.409984 -1.184153 -72.390366 -6.658909 24.207076 -2.193310 2.613985 0.751834 -4.407474 -10.661907 27.566598 -4.861281 -1.463942 -7.058061 -0.210900 -8.586120 -5.309762 7.244083 -0.000000 -0.000000 0.000000 0.351982 22.718092 4.166228 1.551879 -0.883084 0.528244 5.347781 -2.748088 -5.277458 0.000007 -0.873329 -0.000950
-128.569215 96.969186 -265.770134 -73.081279 -17.523246 0.175515 -0.693831 10.954031 2.194127 -0.358933 4.865180 0.986986 -0.358940 4.865196 0.986964 -0.276924 3.648342 0.742626 6.477650 14.724831 -2.210524 12.972790 -8.280957 -6.610042 0.237843 -4.306398 6.639506 -2.610259 -9.429319 74.104452 -0.912029 22.844113 -4.015330 2.840124 0.418342 1.804431 -0.665116 -10.947287 -14.353282 7.414755 -1.180797 -72.388568 -6.562869 24.145771 -2.104170 2.625279 0.751709 -4.400283 -10.669760 27.423848 -4.844646 -1.450097 -7.037683 -0.180199 -8.581791 -5.278695 7.254898 0.000000 -0.000000 0.000000 0.351956 22.602119 4.195944 1.565603 -0.894777 0.535312 5.337778 -2.753440 -5.272738 -0.000013 -0.850995 0.001751
-128.490991 96.974034 -265.768396 -73.069404 -17.414754 0.130434 -0.703320 10.929991 2.178073 -0.362642 4.854476 0.980093 -0.362649 4.854492 0.980072 -0.279632 3.640311 0.737486 5.606912 14.601204 -2.044654 11.294590 -8.628097 -5.991242 0.244006 -4.312386 6.649142 -2.571949 -9.395324 74.099970 -0.899992 22.797181 -4.003099 2.835216 0.418158 1.796598 -0.635248 -10.937822 -14.365743 7.419675 -1.177570 -72.386903 -6.468730 24.085040 -2.016811 2.636247 0.751405 -4.392965 -10.677202 27.282679 -4.827862 -1.436988 -7.017651 -0.149800 -8.577446 -5.247909 7.265518 0.000000 0.000000 0.000000 0.351614 22.487183 4.225125 1.579463 -0.906233 0.542445 5.327755 -2.758735 -5.268146 -0.000032 -0.828863 0.004409
-128.414708 96.978755 -265.766748 -73.057776 -17.308177 0.086367 -0.712613 10.906028 2.162421 -0.366276 4.843805 0.973374 -0.366282 4.843820 0.973355 -0.282285 3.632305 0.732477 4.756819 14.483985 -1.880082 9.650862 -8.948678 -5.374487 0.249738 -4.317811 6.658408 -2.534381 -9.362311 74.095622 -0.887084 22.751320 -3.990287 2.830482 0.417850 1.788824 -0.606566 -10.927863 -14.377840 7.424852 -1.174563 -72.385466 -6.377690 24.025576 -1.932383 2.646650 0.750805 -4.385439 -10.683794 27.144265 -4.810823 -1.425169 -6.998223 -0.119937 -8.573078 -5.217613 7.275797 0.000000 0.000000 0.000000 0.350796 22.374060 4.253393 1.593565 -0.917273 0.549693 5.317696 -2.763933 -5.263776 -0.000049 -0.807084 0.006995
-128.341196 96.983297 -265.765231 -73.046454 -17.204338 0.043724 -0.721608 10.882173 2.147337 -0.369793 4.833183 0.966900 -0.369799 4.833196 0.966883 -0.284853 3.624334 0.727651 3.935994 14.374125 -1.718897 8.058928 -9.240479 -4.767899 0.254854 -4.322432 6.667148 -2.497893 -9.330678 74.091476 -0.872910 22.706987 -3.976667 2.825998 0.417367 1.781135 -0.579580 -10.917180 -14.389402 7.430390 -1.171865 -72.384353 -6.290937 23.968084 -1.852028 2.656251 0.749797 -4.377624 -10.689096 27.009776 -4.793425 -1.415194 -6.979654 -0.090841 -8.568679 -5.188019 7.285589 0.000000 -0.000000 0.000000 0.349346 22.263528 4.280369 1.608015 -0.927716 0.557104 5.307589 -2.768992 -5.259723 -0.000065 -0.785809 0.009478
-128.271286 96.987606 -265.763883 -73.035494 -17.104062 0.002913 -0.730201 10.858456 2.132986 -0.373152 4.822622 0.960740 -0.373157 4.822632 0.960726 -0.287304 3.616408 0.723061 3.153050 14.272435 -1.563276 6.536272 -9.502076 -4.179969 0.259170 -4.326004 6.675206 -2.462821 -9.300824 74.087599 -0.857078 22.664638 -3.962016 2.821837 0.416660 1.773557 -0.554799 -10.905539 -14.400257 7.436396 -1.169569 -72.383662 -6.209647 23.913284 -1.776877 2.664811 0.748268 -4.369441 -10.692664 26.880384 -4.775567 -1.407616 -6.962200 -0.062749 -8.564243 -5.159338 7.294750 -0.000000 -0.000000 -0.000000 0.347108 22.156362 4.305679 1.622919 -0.937383 0.564728 5.297419 -2.773871 -5.256080 -0.000079 -0.765189 0.011826
-128.205811 96.991626 -265.762743 -73.024947 -17.008176 -0.035659 -0.738287 10.834906 2.119535 -0.376310 4.812136 0.954966 -0.376314 4.812144 0.954955 -0.289608 3.608539 0.718757 2.416590 14.179594 -1.415469 5.100499 -9.732803 -3.619460 0.262503 -4.328285 6.682426 -2.429507 -9.273144 74.084061 -0.839190 22.624728 -3.946112 2.818075 0.415680 1.766115 -0.532731 -10.892708 -14.410233 7.442973 -1.167765 -72.383489 -6.134989 23.861903 -1.708056 2.672091 0.746106 -4.360812 -10.694051 26.757256 -4.757152 -1.402990 -6.946113 -0.035892 -8.559763 -5.131780 7.303134 0.000000 0.000000 0.000000 0.343933 22.053339 4.328948 1.638383 -0.946093 0.572614 5.287172 -2.778528 -5.252941 -0.000091 -0.745375 0.014010
